<?xml version="1.0" encoding="utf-8"?>
<!-- Generator: Adobe Illustrator 24.3.0, SVG Export Plug-In . SVG Version: 6.00 Build 0)  -->
<svg version="1.1" id="Layer_1" xmlns="http://www.w3.org/2000/svg" xmlns:xlink="http://www.w3.org/1999/xlink" x="0px" y="0px"
	 viewBox="0 0 841.89 281.02" style="enable-background:new 0 0 841.89 281.02;" xml:space="preserve">
<g>
	<path d="M142.83,19.26C71.79,16.95,13.5,75.24,15.81,146.29c2.1,64.46,54.41,116.77,118.87,118.87
		c71.05,2.31,129.34-55.98,127.03-127.03C259.61,73.67,207.29,21.36,142.83,19.26z M143.16,236.05
		c-55.27,2.54-100.79-42.98-98.24-98.25c2.22-48.19,41.24-87.21,89.43-89.43c55.27-2.54,100.79,42.98,98.25,98.25
		C230.38,194.81,191.35,233.83,143.16,236.05z"/>
	<path d="M609.65,71.03c-27.19,0-49.31,22.16-49.31,49.4c0,0.81,0.02,1.61,0.06,2.41c-0.01,0.22-0.03,0.43-0.03,0.65l0,54.47
		c0,6.06,4.25,11.48,10.23,12.43c7.65,1.22,14.25-4.66,14.25-12.08v-15.2c7.29,4.27,15.76,6.73,24.8,6.73
		c9.01,0,17.45-2.44,24.72-6.69l0,14.7c0,6.06,4.25,11.48,10.23,12.43c7.65,1.22,14.25-4.66,14.25-12.08v-54.71
		c0.06-1.01,0.1-2.03,0.1-3.05C658.96,93.19,636.84,71.03,609.65,71.03z M609.65,145.31c-13.69,0-24.83-11.16-24.83-24.88
		c0-13.71,11.14-24.87,24.83-24.87c13,0,23.68,10.06,24.73,22.81c0,0.08-0.01,0.15-0.01,0.22v4.05
		C633.26,135.33,622.6,145.31,609.65,145.31z"/>
	<path d="M531.3,136.33c-2.43-8.41-7.78-14.59-15.07-17.42c-9.41-3.64-19.66-1.08-29.78,3.65l0.02-1.24
		c0.14-8.02-6.26-14.63-14.29-14.77c-8-0.09-14.65,6.25-14.79,14.27l-0.94,54.75c-0.14,8.02,6.26,14.63,14.29,14.77
		c0.09,0,0.17,0,0.25,0c7.91,0,14.39-6.34,14.53-14.27l0.34-20c5.11-3.08,12.12-7.13,16.93-8.91v28.46
		c0,7.46,5.47,14.01,12.89,14.83c8.77,0.97,16.19-5.87,16.19-14.45v-29.86C531.87,145.16,531.97,138.66,531.3,136.33z"/>
	<path d="M729.9,110.52c-10.03-3.88-21.03-0.72-31.8,4.62c-2.22-5.03-7.19-8.59-13.05-8.69c-0.09,0-0.17,0-0.25,0
		c-7.91,0-14.39,6.35-14.53,14.29l-0.94,54.82c-0.14,8.03,6.26,14.65,14.29,14.79c0.09,0,0.17,0,0.25,0
		c7.91,0,14.39-6.35,14.53-14.29l0.48-27.97c5.67-3.44,14.1-8.35,19.04-9.8c3.24,6.74,11.3,10.12,18.65,7.12
		c6.96-2.85,10.42-11.36,8.09-18.51C742.09,119.02,736.89,113.23,729.9,110.52z"/>
	<path d="M173.59,116.58c-1.84-5.78-7.19-10.01-13.59-10.12c-0.09,0-0.17,0-0.25,0c-7.91,0-14.39,6.35-14.53,14.29l-0.94,54.82
		c-0.14,8.03,6.26,14.65,14.29,14.79c0.09,0,0.17,0,0.25,0c7.91,0,14.39-6.35,14.53-14.29l0.45-26.26
		c5.67-3.44,14.12-8.37,19.07-9.81c3.02,6.28,10.21,9.64,17.13,7.65c7.71-2.23,12.16-10.29,9.93-18
		c-2.43-8.41-7.78-14.59-15.07-17.42C194.98,108.4,184.19,111.4,173.59,116.58z"/>
	<ellipse transform="matrix(0.7071 -0.7071 0.7071 0.7071 25.2299 232.2911)" cx="293.04" cy="85.69" rx="14.63" ry="14.56"/>
	<path d="M547.4,70.9c-22.24-0.91-20.43,29.52-17.75,33.64c0.91,1.4,2.34,2.01,3.62,2.03c1.28,0.02,3.17-0.53,5.14-1.87
		C544.2,100.79,569,71.79,547.4,70.9z"/>
	<path d="M800.53,161.59c-14.81-0.09-18.35-3.29-18.77-17.06V130.5l20.73-3.52c7.36-1.25,12.9-7.74,12.46-15.2
		c-0.52-8.8-8.51-14.96-16.95-13.53l-16.24,2.76v-15.6c0-7.94-6.51-14.38-14.54-14.38s-14.54,6.44-14.54,14.38v59.33
		c0,0.13,0,0.26,0.01,0.39c0.82,29.81,16.86,45.03,47.65,45.22c0.03,0,0.06,0,0.09,0c7.99,0,14.49-6.38,14.54-14.29
		C815.03,168.12,808.56,161.64,800.53,161.59z"/>
	<path d="M403.02,148.52c0-23.96-20.35-43.27-44.68-41.52c-20.14,1.44-36.56,17.51-38.41,37.62c-2.15,23.53,15.41,43.54,38.04,45.38
		v10.68c-18.28,1.83-32.35,18.15-30.5,37.28c1.58,16.38,14.99,29.43,31.41,30.61c19.91,1.43,36.58-14.37,36.58-33.98
		c0-11.39-5.63-21.49-14.24-27.68v-21.78C394.19,178.06,403.02,164.3,403.02,148.52z M344.32,150.27
		c-1.08-10.83,7.99-19.9,18.82-18.81c8.02,0.8,14.5,7.29,15.3,15.31c1.08,10.83-7.99,19.9-18.82,18.81
		C351.61,164.78,345.12,158.29,344.32,150.27z M363.3,245.74c-7.73,1.28-14.36-5.34-13.08-13.08c0.78-4.68,4.55-8.46,9.24-9.23
		c7.73-1.28,14.35,5.34,13.07,13.08C371.77,241.18,367.99,244.96,363.3,245.74z"/>
	<path d="M293.04,106.56L293.04,106.56c-8.06,0-14.6,6.54-14.6,14.6v54.79c0,8.06,6.54,14.6,14.6,14.6h0c8.06,0,14.6-6.54,14.6-14.6
		v-54.79C307.64,113.1,301.1,106.56,293.04,106.56z"/>
	<path d="M427.75,106.56L427.75,106.56c-8.06,0-14.6,6.54-14.6,14.6v54.79c0,8.06,6.54,14.6,14.6,14.6h0c8.06,0,14.6-6.54,14.6-14.6
		v-54.79C442.35,113.1,435.81,106.56,427.75,106.56z"/>
	<path d="M429.65,71.24c-9.55-1.2-17.59,6.83-16.38,16.38c0.82,6.51,6.08,11.76,12.58,12.58c9.55,1.2,17.58-6.83,16.38-16.38
		C441.41,77.32,436.16,72.07,429.65,71.24z"/>
</g>
</svg>
